<svg xmlns="http://www.w3.org/2000/svg" xmlns:xlink="http://www.w3.org/1999/xlink" width="2000" zoomAndPan="magnify" viewBox="0 0 1500 1499.999933" height="2000" preserveAspectRatio="xMidYMid meet" version="1.0"><defs><clipPath id="1d50de62f4"><path d="M 150 74 L 1350 74 L 1350 1426 L 150 1426 Z M 150 74 " clip-rule="nonzero"/></clipPath></defs><g clip-path="url(#1d50de62f4)"><path fill="#545454" d="M 257.058594 1422.570312 C 180.070312 1405.152344 136.496094 1338.433594 153.898438 1264.605469 C 169.03125 1200.402344 223.691406 1146.527344 298.890625 1121.703125 C 319.070312 1115.039062 324.59375 1114.359375 359.019531 1114.304688 C 396.515625 1114.246094 406.207031 1115.921875 432.875 1127.074219 C 437.21875 1128.890625 437.449219 1113.796875 437.449219 831.230469 L 437.449219 533.453125 L 504.769531 514.417969 C 541.796875 503.949219 636.796875 477.261719 715.882812 455.113281 C 794.96875 432.964844 919.609375 397.789062 992.875 376.945312 C 1066.140625 356.105469 1126.367188 339.34375 1126.722656 339.703125 C 1127.082031 340.0625 1127.5625 508.554688 1127.789062 714.136719 C 1128.167969 1056.460938 1127.832031 1089.324219 1123.8125 1104.722656 C 1106.003906 1172.925781 1039.359375 1232.183594 961.640625 1248.917969 C 953.015625 1250.777344 934.191406 1252.296875 919.8125 1252.296875 C 875.921875 1252.296875 843.191406 1240.375 815.078125 1214.144531 C 758.875 1161.695312 763.164062 1076.917969 825.339844 1011.449219 C 854.253906 981 890.523438 959.015625 930.8125 947.503906 C 947.296875 942.792969 957.671875 941.703125 985.167969 941.78125 C 1018.136719 941.875 1029.992188 944.035156 1055.105469 954.539062 C 1059.4375 956.351562 1059.679688 946.277344 1059.679688 764.015625 C 1059.679688 652.574219 1058.695312 571.582031 1057.339844 571.582031 C 1056.054688 571.582031 1047.523438 573.863281 1038.386719 576.648438 C 1029.246094 579.4375 958.242188 599.511719 880.59375 621.25 C 802.949219 642.992188 687.332031 675.417969 623.664062 693.304688 C 560 711.195312 507.386719 725.828125 506.742188 725.828125 C 506.097656 725.828125 505.246094 848.476562 504.851562 998.378906 L 504.125 1270.925781 L 498.363281 1286.027344 C 483.34375 1325.371094 457.238281 1359.070312 422.683594 1383.726562 C 403.425781 1397.46875 368.933594 1413.972656 347.265625 1419.816406 C 324.660156 1425.914062 278.097656 1427.339844 257.066406 1422.585938 Z M 1259.933594 440.242188 C 1250.390625 405.722656 1238.410156 393.835938 1201.832031 382.609375 L 1181.230469 376.285156 L 1192.996094 374.277344 C 1212.308594 370.976562 1235.820312 358.96875 1244.023438 348.214844 C 1248.078125 342.902344 1254.511719 329.726562 1258.320312 318.933594 L 1265.242188 299.320312 L 1269.507812 314.53125 C 1278.78125 347.617188 1295.617188 363.40625 1331.261719 372.460938 L 1350.054688 377.234375 L 1335.652344 380.457031 C 1327.734375 382.230469 1314.300781 387.152344 1305.808594 391.398438 C 1287.546875 400.523438 1278.417969 412.667969 1270.078125 438.933594 L 1264.464844 456.621094 Z M 1025.675781 315.238281 C 1025.675781 301.667969 1014.054688 288.636719 995.757812 281.695312 L 983.5625 277.066406 L 994.625 273.75 C 1014.070312 267.925781 1018.441406 263.132812 1027.039062 238.242188 C 1028.496094 234.023438 1029.546875 235.355469 1032.492188 245.164062 C 1036.886719 259.816406 1050.242188 272.515625 1063.964844 275.089844 L 1073.605469 276.898438 L 1060.214844 281.894531 C 1044.796875 287.644531 1034.46875 298.5 1032.027344 311.523438 C 1030.183594 321.335938 1025.675781 323.976562 1025.675781 315.238281 Z M 1149.425781 268.085938 C 1138.097656 214.652344 1112.042969 189.183594 1057.550781 178.265625 L 1042.882812 175.324219 C 1042.882812 175.324219 1057.75 173.21875 1064.152344 169.632812 C 1097.574219 150.921875 1133.164062 138.960938 1147.507812 90.53125 C 1150.703125 79.746094 1153.859375 72.6875 1154.519531 74.84375 C 1155.183594 77 1157.761719 85.824219 1160.253906 94.453125 C 1169.210938 125.484375 1184.84375 146.339844 1207.988281 158.152344 C 1217.167969 162.832031 1234.695312 168.402344 1254.433594 172.910156 C 1261.476562 174.519531 1260.273438 175.210938 1242.667969 179.683594 C 1215.402344 186.613281 1192.363281 198.496094 1181.425781 211.273438 C 1172.355469 221.875 1162.386719 244.492188 1155.816406 269.390625 L 1152.425781 282.238281 Z M 1149.425781 268.085938 " fill-opacity="1" fill-rule="nonzero"/></g></svg>